<svg fill="none" height="20" viewBox="0 0 20 20" width="20" xmlns="http://www.w3.org/2000/svg"><path clip-rule="evenodd" d="m13.4766 14.8907c-.9808.6985-2.1807 1.1093-3.4766 1.1093-3.31371 0-6-2.6863-6-6 0-1.29586.41081-2.49577 1.1093-3.47661zm1.4142-1.4142-8.36726-8.3673c.9808-.69843 2.18066-1.1092 3.47646-1.1092 3.3137 0 6 2.68629 6 6 0 1.2958-.4108 2.4957-1.1092 3.4765zm3.1092-3.4765c0 4.4183-3.5817 8-8 8-4.41828 0-8-3.5817-8-8 0-4.41828 3.58172-8 8-8 4.4183 0 8 3.58172 8 8z" fill="#4b5563" fill-rule="evenodd"/></svg>