<svg enable-background="new 0 0 59.9995 60" viewBox="0 0 59.9995 60" xmlns="http://www.w3.org/2000/svg"><path d="m18.3135 36.5039-16.0913 19.6377v-29.7261z" fill="#fde3e3"/><path d="m20.2114 37.6943 9.7881 6.1358 9.8916-6.2012 16.5088 20.1484h-52.646z" fill="#fde3e3"/><path d="m41.7886 36.4385 15.9882-10.023v29.5366z" fill="#fde3e3"/><path d="m56.4829 24.604-5.8018 3.6377v-6.0693z" fill="#f16061"/><path d="m10.4292 30.249v-29.1377h39.1406v29.1377l-19.5703 12.2696z" fill="#fff"/><path d="m24.2207 11.0107c2.5737 0 4.668 2.0928 4.668 4.6641 0 .6138.4965 1.1113 1.1108 1.1113s1.1113-.4975 1.1113-1.1113c0-2.5713 2.0928-4.6641 4.666-4.6641 2.5733 0 4.6661 2.0928 4.6661 4.6641 0 1.2969-.5313 2.5068-1.4961 3.4067-.0508.0469-.0957.0977-.1358.1519l-8.8115 8.8101-8.8086-8.8077c-.0391-.0537-.0845-.104-.1343-.1504-.9677-.9033-1.5019-2.1142-1.5019-3.4106 0-2.5713 2.0932-4.6641 4.666-4.6641z" fill="#f16061"/><path d="m9.3183 28.2417-5.8027-3.6377 5.8027-2.4316z" fill="#f16061"/><g fill="#393939"><path d="m29.9995 30.7261c-.2842 0-.5684-.1089-.7856-.3257l-9.7144-9.7139c-.0327-.0327-.063-.0669-.0913-.1025-1.3399-1.3145-2.0757-3.0503-2.0757-4.9092 0-3.7969 3.0903-6.8862 6.8882-6.8862 2.4175 0 4.5483 1.251 5.7788 3.1396 1.2295-1.8886 3.3594-3.1396 5.7773-3.1396 3.7989 0 6.8887 3.0893 6.8887 6.8862 0 1.8599-.7344 3.5952-2.0713 4.9063-.0283.0371-.0595.0722-.0937.1054l-9.7154 9.7139c-.2172.2168-.5014.3257-.7856.3257zm-8.8086-11.4903 8.8086 8.8077 8.8105-8.8101c.0411-.0542.087-.105.1368-.1519.9648-.8999 1.4961-2.1098 1.4961-3.4067 0-2.5713-2.0928-4.6641-4.6661-4.6641-2.5732 0-4.666 2.0928-4.666 4.6641 0 .6138-.497 1.1113-1.1113 1.1113s-1.1108-.4975-1.1108-1.1113c0-2.5713-2.0943-4.6641-4.668-4.6641-2.5728 0-4.666 2.0928-4.666 4.6641 0 1.2964.5342 2.5073 1.5019 3.4106.0498.0464.0952.0967.1343.1504z"/><path d="m57.2515 58.8174-18.3262-22.3662 1.7187-1.4092 18.3262 22.3662z"/><path d="m29.9995 43.8301-29.479-18.4815 1.1807-1.8823 28.2983 17.7398 28.2988-17.7398 1.1797 1.8823z"/><path d="m59.9995 60h-59.9995v-36.3315l10.311-4.3223.8594 2.0498-8.9482 3.7505v32.6308h55.5546v-32.6308l-8.9492-3.7505.8594-2.0498 10.3125 4.3223z"/><path d="m50.6811 30h-2.2226v-27.7773h-36.918v27.7773h-2.2222v-30h41.3628z"/><path d="m2.9023 58.8174-1.7187-1.4092 18.3276-22.3662 1.7188 1.4092z"/></g></svg>