<svg fill="none" height="20" viewBox="0 0 20 20" width="20" xmlns="http://www.w3.org/2000/svg"><path clip-rule="evenodd" d="m7.70711 3.29289c.39052.39053.39052 1.02369 0 1.41422l-2.2929 2.29289h5.58579c3.866 0 7 3.134 7 7v2c0 .5523-.4477 1-1 1s-1-.4477-1-1v-2c0-2.7614-2.2386-5-5-5h-5.58579l2.2929 2.2929c.39052.3905.39052 1.0237 0 1.4142-.39053.3905-1.02369.3905-1.41422 0l-4-3.99999c-.39052-.39053-.39052-1.02369 0-1.41422l4-4c.39053-.39052 1.02369-.39052 1.41422 0z" fill="#4a5568" fill-rule="evenodd"/></svg>