<svg fill="none" height="24" viewBox="0 0 24 24" width="24" xmlns="http://www.w3.org/2000/svg"><g stroke="#4a5568" stroke-linecap="round" stroke-linejoin="round" stroke-width="2"><path d="m10.3246 4.31731c.4264-1.75641 2.9244-1.75641 3.3508 0 .2754 1.13462 1.5753 1.67307 2.5724 1.06554 1.5435-.94046 3.3098.82585 2.3694 2.36933-.6076.99707-.0691 2.29702 1.0655 2.57242 1.7564.4264 1.7564 2.9244 0 3.3508-1.1346.2754-1.6731 1.5753-1.0655 2.5724.9404 1.5435-.8259 3.3098-2.3694 2.3694-.9971-.6076-2.297-.0691-2.5724 1.0655-.4264 1.7564-2.9244 1.7564-3.3508 0-.2754-1.1346-1.57534-1.6731-2.57241-1.0655-1.54349.9404-3.3098-.8259-2.36934-2.3694.60753-.9971.06908-2.297-1.06554-2.5724-1.75641-.4264-1.75641-2.9244 0-3.3508 1.13462-.2754 1.67306-1.57534 1.06554-2.57242-.94046-1.54348.82585-3.30979 2.36934-2.36933.99707.60752 2.29701.06908 2.57241-1.06554z"/><path d="m15 12c0 1.6569-1.3431 3-3 3s-3-1.3431-3-3 1.3431-3 3-3 3 1.3431 3 3z"/></g></svg>